<?xml version="1.0" encoding="UTF-8"?>
<svg width="460px" height="172px" viewBox="0 0 460 172" version="1.1" xmlns="http://www.w3.org/2000/svg" xmlns:xlink="http://www.w3.org/1999/xlink">
    <!-- Generator: Sketch 50 (54983) - http://www.bohemiancoding.com/sketch -->
    <title>Group 175</title>
    <desc>Created with Sketch.</desc>
    <defs></defs>
    <g id="Page-4" stroke="none" stroke-width="1" fill="none" fill-rule="evenodd">
        <g id="containerday-CMYK" transform="translate(-191.000000, -194.000000)">
            <g id="Group-175" transform="translate(0.000000, -18.000000)">
                <path d="M336.9658,313.6812 L317.0238,313.6812 C315.2608,313.6812 313.8298,315.1142 313.8298,316.8752 L313.8298,323.0312 C313.8298,324.9352 312.8058,326.7092 311.1538,327.6622 L268.4268,352.3322 C266.7998,353.2682 264.7058,353.2712 263.0758,352.3332 L220.3448,327.6642 C218.6978,326.7102 217.6708,324.9362 217.6708,323.0312 L217.6708,273.6922 C217.6708,271.7872 218.6978,270.0122 220.3448,269.0592 L263.0758,244.3912 C264.6998,243.4522 266.8058,243.4532 268.4248,244.3902 L269.8488,245.2152 C270.8208,245.7722 272.0728,245.7732 273.0468,245.2132 C274.0308,244.6452 274.6418,243.5842 274.6418,242.4462 L274.6418,219.4192 C274.6418,218.2822 274.0308,217.2202 273.0458,216.6512 L267.3468,213.3622 C266.8618,213.0822 266.3108,212.9342 265.7488,212.9342 C265.1898,212.9342 264.6388,213.0822 264.1508,213.3642 L192.9398,254.4772 C191.9518,255.0472 191.3398,256.1092 191.3398,257.2442 L191.3398,339.4772 C191.3398,340.6142 191.9518,341.6742 192.9398,342.2442 L264.1528,383.3602 C265.1278,383.9222 266.3828,383.9202 267.3468,383.3602 L338.5628,342.2442 C339.5478,341.6762 340.1588,340.6152 340.1588,339.4772 L340.1588,316.8752 C340.1588,315.1142 338.7258,313.6812 336.9658,313.6812 Z M338.5618,254.4772 L318.6208,242.9652 C318.1348,242.6842 317.5838,242.5372 317.0238,242.5372 C316.4638,242.5372 315.9118,242.6842 315.4258,242.9652 C314.4408,243.5342 313.8298,244.5942 313.8298,245.7332 L313.8298,279.8462 C313.8298,281.6082 315.2608,283.0412 317.0238,283.0412 L336.9658,283.0412 C338.7258,283.0412 340.1588,281.6082 340.1588,279.8462 L340.1588,257.2442 C340.1588,256.1082 339.5478,255.0462 338.5618,254.4772 Z M278.3948,287.9732 C280.0438,288.9232 281.0688,290.6982 281.0688,292.6042 L281.0688,304.1182 C281.0688,306.0222 280.0438,307.7982 278.3948,308.7502 L268.4268,314.5062 C267.6138,314.9752 266.6908,315.2242 265.7488,315.2242 C264.8128,315.2242 263.8878,314.9752 263.0758,314.5062 L253.1048,308.7502 C251.4538,307.7972 250.4318,306.0222 250.4318,304.1182 L250.4318,292.6042 C250.4318,290.7002 251.4538,288.9232 253.1048,287.9732 L263.0758,282.2152 C264.7088,281.2762 266.8018,281.2802 268.4268,282.2152 L278.3948,287.9732 Z M265.7488,250.7622 C265.1898,250.7622 264.6378,250.9092 264.1508,251.1902 L225.6978,273.3912 C224.7108,273.9612 224.0988,275.0222 224.0988,276.1592 L224.0988,320.5632 C224.0988,321.7002 224.7108,322.7602 225.6978,323.3312 L264.1528,345.5322 C265.1258,346.0962 266.3828,346.0922 267.3468,345.5322 L305.8028,323.3312 C306.7888,322.7612 307.4018,321.7022 307.4018,320.5632 L307.4018,238.3342 C307.4018,237.1972 306.7868,236.1352 305.8028,235.5662 L285.8618,224.0532 C284.8928,223.4942 283.6338,223.4962 282.6668,224.0532 C281.6828,224.6232 281.0688,225.6852 281.0688,226.8212 L281.0688,257.2462 C281.0688,257.6312 280.8638,257.9872 280.5308,258.1792 C280.1948,258.3712 279.7868,258.3712 279.4528,258.1792 L267.3468,251.1902 C266.8628,250.9092 266.3128,250.7622 265.7488,250.7622 Z" id="Fill-154" fill="#EB8B2D"></path>
                <path d="M384.8369,265.229 C387.2559,265.229 389.0389,266.374 389.9909,267.837 L397.3739,260.903 C395.6529,258.295 391.3279,255.115 384.3289,255.115 C374.5969,255.115 367.0869,261.475 367.0869,271.211 C367.0869,281.009 374.5969,287.371 384.3289,287.371 C391.3279,287.371 395.6529,284.125 397.3739,281.58 L389.9909,274.582 C389.0389,275.983 387.2559,277.255 384.8369,277.255 C381.5949,277.255 378.7939,275.157 378.7939,271.211 C378.7939,267.266 381.5949,265.229 384.8369,265.229" id="Fill-156" fill="#1A1919"></path>
                <path d="M416.2715,277.2554 C412.7705,277.2554 410.7995,274.6474 410.7995,271.2114 C410.7995,267.8374 412.7705,265.2294 416.2715,265.2294 C419.8325,265.2294 421.8055,267.8374 421.8055,271.2114 C421.8055,274.6474 419.8325,277.2554 416.2715,277.2554 M416.2715,255.1144 C405.3935,255.1144 399.0295,262.6214 399.0295,271.2114 C399.0295,279.7994 405.3935,287.3704 416.2715,287.3704 C427.2165,287.3704 433.5755,279.7994 433.5755,271.2114 C433.5755,262.6214 427.2165,255.1144 416.2715,255.1144" id="Fill-158" fill="#1A1919"></path>
                <path d="M459.8564,255.1147 C454.4504,255.1147 451.0794,257.3397 449.2964,259.3767 L449.2964,255.8767 L437.8434,255.8767 L437.8434,286.6077 L449.2964,286.6077 L449.2964,267.6467 C450.2514,266.5667 451.5874,265.2287 454.1964,265.2287 C456.9314,265.2287 458.6484,266.4377 458.6484,269.6197 L458.6484,286.6077 L470.0994,286.6077 L470.0994,264.7847 C470.0994,259.4377 466.9834,255.1147 459.8564,255.1147" id="Fill-160" fill="#1A1919"></path>
                <path d="M492.8164,277.2554 C491.2934,277.2554 490.2744,275.9834 490.2744,274.3904 L490.2744,265.8034 L496.5094,265.8034 L496.5094,255.8764 L490.2744,255.8764 L490.2744,247.4774 L478.8204,247.4774 L478.8204,255.8764 L473.7324,255.8764 L473.7324,265.8034 L478.8204,265.8034 L478.8204,277.6994 C478.8204,284.1254 482.5744,287.3704 489.3814,287.3704 C493.2604,287.3704 495.9344,286.4164 497.1414,285.3344 L495.1074,276.6824 C494.8524,276.9384 493.8354,277.2554 492.8164,277.2554" id="Fill-162" fill="#1A1919"></path>
                <path d="M520.875,275.1567 C519.793,276.4907 517.633,277.2557 516.103,277.2557 C512.989,277.2557 510.381,275.0267 510.381,271.2117 C510.381,267.3927 512.989,265.2947 516.103,265.2947 C517.633,265.2947 519.793,265.9927 520.875,267.3287 L520.875,275.1567 Z M520.812,259.1217 C518.398,256.1957 515.342,255.1147 512.225,255.1147 C504.65,255.1147 498.673,261.0297 498.673,271.2117 C498.673,281.7727 504.779,287.3707 512.225,287.3707 C515.342,287.3707 518.27,286.2897 520.875,283.3617 L520.875,286.6077 L532.328,286.6077 L532.328,255.8767 L520.812,255.8767 L520.812,259.1217 Z" id="Fill-164" fill="#1A1919"></path>
                <polygon id="Fill-166" fill="#1A1919" points="538.693 286.608 550.144 286.608 550.144 255.877 538.693 255.877"></polygon>
                <path d="M544.4219,240.7983 C540.8589,240.7983 537.9959,243.6593 537.9959,247.2243 C537.9959,250.7853 540.8589,253.6513 544.4219,253.6513 C547.9849,253.6513 550.8499,250.7853 550.8499,247.2243 C550.8499,243.6593 547.9849,240.7983 544.4219,240.7983" id="Fill-168" fill="#1A1919"></path>
                <path d="M578.5244,255.1147 C573.1184,255.1147 569.7454,257.3397 567.9614,259.3767 L567.9614,255.8767 L556.5104,255.8767 L556.5104,286.6077 L567.9614,286.6077 L567.9614,267.6467 C568.9184,266.5667 570.2514,265.2287 572.8634,265.2287 C575.5974,265.2287 577.3144,266.4377 577.3144,269.6197 L577.3144,286.6077 L588.7674,286.6077 L588.7674,264.7847 C588.7674,259.4377 585.6534,255.1147 578.5244,255.1147" id="Fill-169" fill="#1A1919"></path>
                <path d="M604.7412,267.52 C605.1232,266.122 606.2672,263.829 609.7662,263.829 C613.4582,263.829 614.5392,266.184 614.8572,267.52 L604.7412,267.52 Z M609.7662,255.115 C599.8452,255.115 593.0342,262.303 593.0342,271.211 C593.0342,281.327 600.5422,287.371 610.1492,287.371 C614.7302,287.371 620.2032,286.162 623.2562,283.552 L618.5452,276.491 C617.0192,277.828 613.2042,278.655 611.4872,278.655 C607.7282,278.655 605.5062,276.745 604.8702,274.774 L625.7372,274.774 L625.7372,272.418 C625.7372,261.604 618.8022,255.115 609.7662,255.115 Z" id="Fill-170" fill="#1A1919"></path>
                <path d="M641.1387,259.2476 L641.1387,255.8766 L629.6857,255.8766 L629.6857,286.6076 L641.1387,286.6076 L641.1387,267.7716 C642.4087,266.2486 645.5277,265.6106 647.9457,265.6106 C649.0267,265.6106 649.9807,265.7386 650.5517,265.9306 L650.5517,254.9866 C647.0527,254.9866 643.0447,257.0206 641.1387,259.2476" id="Fill-171" fill="#1A1919"></path>
                <path d="M391.1396,333.1157 C389.4856,335.7877 385.7306,338.0137 381.9756,338.0137 C375.7426,338.0137 372.0486,332.9887 372.0486,326.1797 C372.0486,319.3737 375.7426,314.2837 381.9756,314.2837 C385.7306,314.2837 389.4856,316.5737 391.1396,319.2447 L391.1396,333.1157 Z M391.1396,315.4277 C388.6566,312.0547 384.9036,310.0217 380.7676,310.0217 C372.7496,310.0217 367.0866,316.3197 367.0866,326.1797 C367.0866,336.1687 372.7496,342.2777 380.7676,342.2777 C385.0946,342.2777 388.8476,340.0517 391.1396,336.9327 L391.1396,341.5147 L395.9116,341.5147 L395.9116,299.0777 L391.1396,299.0777 L391.1396,315.4277 Z" id="Fill-172" fill="#1A1919"></path>
                <path d="M426.1348,333.1157 C424.4808,335.7877 420.7278,338.0137 416.9718,338.0137 C410.7378,338.0137 407.0478,332.9887 407.0478,326.1797 C407.0478,319.3737 410.7378,314.2837 416.9718,314.2837 C420.7278,314.2837 424.4808,316.5737 426.1348,319.2447 L426.1348,333.1157 Z M426.1348,315.4277 C423.6548,312.0547 419.8998,310.0217 415.7628,310.0217 C407.7458,310.0217 402.0828,316.3197 402.0828,326.1797 C402.0828,336.1687 407.7458,342.2777 415.7628,342.2777 C420.0908,342.2777 423.8438,340.0517 426.1348,336.9327 L426.1348,341.5147 L430.9058,341.5147 L430.9058,310.7837 L426.1348,310.7837 L426.1348,315.4277 Z" id="Fill-173" fill="#1A1919"></path>
                <path d="M459.9199,310.7837 L449.6769,335.9787 L439.4969,310.7837 L434.2789,310.7837 L447.1329,341.8327 L445.0989,346.4777 C444.0169,349.0217 442.6149,349.7217 440.5179,349.7217 C439.7529,349.7217 438.6099,349.5317 437.9089,349.2127 L437.2069,353.5387 C438.0349,353.7937 439.6259,353.9847 440.6469,353.9847 C444.7149,353.9237 447.8339,352.2037 449.6769,347.7507 L465.0749,310.7837 L459.9199,310.7837 Z" id="Fill-174" fill="#1A1919"></path>
            </g>
        </g>
    </g>
</svg>