<?xml version="1.0" encoding="UTF-8"?>
<svg width="150px" height="172px" viewBox="0 0 150 172" version="1.1" xmlns="http://www.w3.org/2000/svg" xmlns:xlink="http://www.w3.org/1999/xlink">
    <!-- Generator: Sketch 50 (54983) - http://www.bohemiancoding.com/sketch -->
    <title>Group 175</title>
    <desc>Created with Sketch.</desc>
    <defs></defs>
    <g id="Page-4" stroke="none" stroke-width="1" fill="none" fill-rule="evenodd">
        <g id="containerday-CMYK" transform="translate(-191.000000, -194.000000)" fill="#EB8B2D">
            <g id="Group-175" transform="translate(0.000000, -18.000000)">
                <path d="M336.9658,313.6812 L317.0238,313.6812 C315.2608,313.6812 313.8298,315.1142 313.8298,316.8752 L313.8298,323.0312 C313.8298,324.9352 312.8058,326.7092 311.1538,327.6622 L268.4268,352.3322 C266.7998,353.2682 264.7058,353.2712 263.0758,352.3332 L220.3448,327.6642 C218.6978,326.7102 217.6708,324.9362 217.6708,323.0312 L217.6708,273.6922 C217.6708,271.7872 218.6978,270.0122 220.3448,269.0592 L263.0758,244.3912 C264.6998,243.4522 266.8058,243.4532 268.4248,244.3902 L269.8488,245.2152 C270.8208,245.7722 272.0728,245.7732 273.0468,245.2132 C274.0308,244.6452 274.6418,243.5842 274.6418,242.4462 L274.6418,219.4192 C274.6418,218.2822 274.0308,217.2202 273.0458,216.6512 L267.3468,213.3622 C266.8618,213.0822 266.3108,212.9342 265.7488,212.9342 C265.1898,212.9342 264.6388,213.0822 264.1508,213.3642 L192.9398,254.4772 C191.9518,255.0472 191.3398,256.1092 191.3398,257.2442 L191.3398,339.4772 C191.3398,340.6142 191.9518,341.6742 192.9398,342.2442 L264.1528,383.3602 C265.1278,383.9222 266.3828,383.9202 267.3468,383.3602 L338.5628,342.2442 C339.5478,341.6762 340.1588,340.6152 340.1588,339.4772 L340.1588,316.8752 C340.1588,315.1142 338.7258,313.6812 336.9658,313.6812 Z M338.5618,254.4772 L318.6208,242.9652 C318.1348,242.6842 317.5838,242.5372 317.0238,242.5372 C316.4638,242.5372 315.9118,242.6842 315.4258,242.9652 C314.4408,243.5342 313.8298,244.5942 313.8298,245.7332 L313.8298,279.8462 C313.8298,281.6082 315.2608,283.0412 317.0238,283.0412 L336.9658,283.0412 C338.7258,283.0412 340.1588,281.6082 340.1588,279.8462 L340.1588,257.2442 C340.1588,256.1082 339.5478,255.0462 338.5618,254.4772 Z M278.3948,287.9732 C280.0438,288.9232 281.0688,290.6982 281.0688,292.6042 L281.0688,304.1182 C281.0688,306.0222 280.0438,307.7982 278.3948,308.7502 L268.4268,314.5062 C267.6138,314.9752 266.6908,315.2242 265.7488,315.2242 C264.8128,315.2242 263.8878,314.9752 263.0758,314.5062 L253.1048,308.7502 C251.4538,307.7972 250.4318,306.0222 250.4318,304.1182 L250.4318,292.6042 C250.4318,290.7002 251.4538,288.9232 253.1048,287.9732 L263.0758,282.2152 C264.7088,281.2762 266.8018,281.2802 268.4268,282.2152 L278.3948,287.9732 Z M265.7488,250.7622 C265.1898,250.7622 264.6378,250.9092 264.1508,251.1902 L225.6978,273.3912 C224.7108,273.9612 224.0988,275.0222 224.0988,276.1592 L224.0988,320.5632 C224.0988,321.7002 224.7108,322.7602 225.6978,323.3312 L264.1528,345.5322 C265.1258,346.0962 266.3828,346.0922 267.3468,345.5322 L305.8028,323.3312 C306.7888,322.7612 307.4018,321.7022 307.4018,320.5632 L307.4018,238.3342 C307.4018,237.1972 306.7868,236.1352 305.8028,235.5662 L285.8618,224.0532 C284.8928,223.4942 283.6338,223.4962 282.6668,224.0532 C281.6828,224.6232 281.0688,225.6852 281.0688,226.8212 L281.0688,257.2462 C281.0688,257.6312 280.8638,257.9872 280.5308,258.1792 C280.1948,258.3712 279.7868,258.3712 279.4528,258.1792 L267.3468,251.1902 C266.8628,250.9092 266.3128,250.7622 265.7488,250.7622 Z" id="Fill-154"></path>
            </g>
        </g>
    </g>
</svg>